<?xml version="1.0" standalone="no"?>
<!DOCTYPE svg PUBLIC "-//W3C//DTD SVG 20010904//EN"
 "http://www.w3.org/TR/2001/REC-SVG-20010904/DTD/svg10.dtd">
<svg version="1.0" xmlns="http://www.w3.org/2000/svg"
 width="200.000000pt" height="200.000000pt" viewBox="0 0 200.000000 200.000000"
 preserveAspectRatio="xMidYMid meet">

<g transform="translate(0.000000,200.000000) scale(0.100000,-0.100000)"
fill="#000000" stroke="none">
<path d="M0 1000 l0 -1000 1000 0 1000 0 0 1000 0 1000 -1000 0 -1000 0 0
-1000z m637 309 c107 -52 188 -174 181 -272 l-3 -39 -32 46 c-92 131 -299 175
-456 98 -60 -30 -105 -69 -150 -132 -18 -25 -18 -25 -12 35 7 78 43 153 95
203 105 103 245 126 377 61z m325 -164 c0 -5 -5 -11 -11 -13 -6 -2 -11 4 -11
13 0 9 5 15 11 13 6 -2 11 -8 11 -13z m658 0 c0 -8 -4 -15 -10 -15 -5 0 -10 7
-10 15 0 8 5 15 10 15 6 0 10 -7 10 -15z m-496 -17 c13 -14 15 -23 8 -26 -15
-5 -16 -42 -2 -42 6 0 10 -7 10 -15 0 -8 -6 -15 -13 -15 -19 0 -37 21 -37 45
0 12 -5 26 -12 33 -9 9 -9 12 0 12 7 0 12 7 12 15 0 21 12 19 34 -7z m436 7
c0 -8 8 -15 18 -15 16 -1 16 -1 0 -14 -23 -17 -23 -42 -1 -50 11 -5 13 -10 6
-17 -17 -17 -43 1 -43 32 0 16 -6 30 -12 30 -25 2 -53 -3 -62 -11 -12 -12 12
-40 29 -34 7 3 16 1 20 -5 10 -17 -23 -25 -51 -13 -28 14 -32 52 -8 77 11 11
26 14 50 9 27 -5 34 -3 34 10 0 9 5 16 10 16 6 0 10 -7 10 -15z m-506 -21 c18
-17 22 -84 6 -84 -5 0 -10 9 -10 19 0 30 -11 51 -26 51 -8 0 -14 -6 -15 -12
-1 -7 -2 -22 -3 -32 0 -11 -7 -21 -13 -23 -9 -3 -13 9 -13 40 0 39 3 46 23 50
12 2 25 5 29 6 4 0 14 -6 22 -15z m167 6 c10 -6 19 -20 19 -30 0 -16 -7 -20
-31 -20 -16 0 -28 -4 -25 -9 3 -5 15 -7 26 -4 11 3 20 0 20 -6 0 -18 -29 -25
-56 -13 -28 13 -33 52 -8 76 18 19 28 20 55 6z m93 4 c20 -8 11 -24 -15 -24
-15 0 -19 -7 -19 -35 0 -19 -4 -35 -10 -35 -5 0 -10 20 -10 44 0 34 4 46 18
49 9 3 18 5 19 6 1 0 8 -2 17 -5z m114 -47 c-3 -41 -4 -41 -42 -42 -45 0 -62
19 -52 58 6 27 24 35 69 29 26 -4 28 -7 25 -45z m394 29 c17 -24 7 -36 -29
-36 -28 0 -34 -3 -23 -10 8 -5 23 -7 33 -4 9 3 17 0 17 -6 0 -17 -29 -24 -56
-12 -33 16 -34 69 -1 81 24 9 48 4 59 -13z m-1190 -24 c34 -14 74 -43 98 -68
40 -44 78 -109 68 -119 -2 -3 -24 14 -48 36 -24 23 -69 54 -99 68 -48 22 -69
26 -151 26 -88 0 -101 -3 -162 -33 -40 -20 -81 -49 -103 -74 -19 -23 -37 -39
-41 -36 -12 12 46 105 91 147 98 90 221 109 347 53z m338 9 c0 -16 -3 -36 -6
-45 -12 -31 -24 -16 -24 29 0 33 4 45 15 45 10 0 15 -10 15 -29z m650 -16 c0
-25 -4 -45 -10 -45 -5 0 -10 20 -10 45 0 25 5 45 10 45 6 0 10 -20 10 -45z
m52 18 l11 -28 10 28 c9 22 37 39 37 22 0 -13 -41 -85 -48 -85 -9 0 -42 64
-42 80 0 21 21 9 32 -17z m-1040 -136 c29 -14 73 -46 97 -71 38 -39 42 -47 31
-61 -12 -14 -15 -14 -34 4 -12 11 -48 32 -81 48 -52 24 -72 28 -150 28 -78 0
-98 -4 -150 -28 -33 -16 -70 -37 -82 -49 -12 -11 -26 -17 -32 -13 -44 27 60
124 172 161 63 21 165 12 229 -19z m742 0 c7 -6 6 -7 -4 -4 -8 2 -16 12 -17
23 -2 13 -1 15 4 4 3 -8 11 -19 17 -23z m63 8 c-4 -8 -12 -15 -19 -14 -10 0
-10 2 0 6 6 2 12 12 12 21 0 8 3 13 6 9 4 -3 4 -13 1 -22z m53 -8 c11 -5 9 -6
-4 -4 -11 1 -21 9 -23 17 -3 10 -2 11 4 4 4 -6 15 -14 23 -17z m93 9 c4 -10 1
-13 -8 -9 -8 3 -12 9 -9 14 7 12 11 11 17 -5z m181 -2 c3 -8 2 -12 -4 -9 -6 3
-10 10 -10 16 0 14 7 11 14 -7z m-84 -4 c0 -5 -2 -10 -4 -10 -3 0 -8 5 -11 10
-3 6 -1 10 4 10 6 0 11 -4 11 -10z m-670 -68 c0 -5 -7 -9 -15 -9 -8 0 -12 4
-9 9 3 4 9 8 15 8 5 0 9 -4 9 -8z m68 -6 c-7 -8 -15 -12 -17 -11 -5 6 10 25
20 25 5 0 4 -6 -3 -14z m151 -3 c0 -11 -3 -13 -6 -5 -2 6 -10 9 -15 6 -7 -4
-8 -2 -4 4 11 18 26 14 25 -5z m100 0 c0 -11 -3 -13 -6 -5 -2 6 -10 9 -15 6
-7 -4 -8 -2 -4 4 11 18 26 14 25 -5z m84 -3 c3 -11 1 -18 -4 -14 -5 3 -9 12
-9 20 0 20 7 17 13 -6z m244 5 c0 -8 -4 -12 -9 -9 -5 3 -6 10 -3 15 9 13 12
11 12 -6z m-999 -51 c39 -19 72 -39 72 -44 0 -5 -15 -21 -34 -35 -91 -69 -235
-86 -336 -39 -54 25 -100 60 -100 75 0 14 84 58 140 74 83 23 169 13 258 -31z"/>
<path d="M1188 1093 c6 -2 18 -2 25 0 6 3 1 5 -13 5 -14 0 -19 -2 -12 -5z"/>
<path d="M1354 1089 c-8 -14 21 -43 35 -35 19 12 13 46 -8 46 -11 0 -23 -5
-27 -11z"/>
<path d="M1773 1093 c9 -2 23 -2 30 0 6 3 -1 5 -18 5 -16 0 -22 -2 -12 -5z"/>
</g>
</svg>
